# Blender v2.92.0 OBJ File: 'enemy.blend'
# www.blender.org
mtllib enemy.mtl
o 円錐.001
v 0.000000 1.083307 -1.095866
v -1.030286 0.334760 -1.095866
v -0.636752 -0.876414 -1.095866
v 0.636752 -0.876414 -1.095866
v 1.030286 0.334760 -1.095866
v 0.000000 0.000000 -2.082596
v 0.000000 1.083307 -1.095866
v 1.030286 0.334760 -1.095866
v 0.636752 -0.876414 -1.095866
v -0.636752 -0.876414 -1.095866
v -1.030286 0.334761 -1.095866
v 0.000000 -0.000000 2.408990
vt 0.445686 0.443658
vt 0.445686 0.796640
vt 0.225560 0.520704
vt 0.906118 0.233221
vt 0.692001 0.116610
vt 0.906118 0.000000
vt 0.214117 1.000000
vt 0.000000 0.883390
vt 0.214117 0.766779
vt 0.445686 0.776822
vt 0.562297 0.443658
vt 0.678907 0.776822
vt 0.883723 0.728787
vt 0.883723 0.972598
vt 0.678907 0.840331
vt 0.000000 0.399441
vt 0.225560 0.000000
vt 0.225560 0.458727
vt 0.678907 0.728786
vt 0.795517 0.443658
vt 0.912128 0.728786
vt 0.458780 0.443658
vt 0.575391 0.000000
vt 0.692001 0.443658
vt 0.225560 0.443658
vt 0.342170 0.000000
vt 0.458780 0.443658
vt 0.000000 0.678496
vt 0.215865 0.458727
vt 0.215866 0.766779
vn -0.4395 0.6049 -0.6641
vn -0.7111 -0.2310 -0.6641
vn 0.0000 -0.7477 -0.6641
vn 0.7111 -0.2310 -0.6641
vn 0.4395 0.6049 -0.6641
vn 0.5702 0.7849 0.2426
vn 0.9226 -0.2998 0.2426
vn -0.0000 -0.9701 0.2426
vn -0.9226 -0.2998 0.2426
vn -0.5702 0.7849 0.2426
usemtl マテリアル.001
s off
f 1/1/1 6/2/1 2/3/1
f 2/4/2 6/5/2 3/6/2
f 3/7/3 6/8/3 4/9/3
f 4/10/4 6/11/4 5/12/4
f 5/13/5 6/14/5 1/15/5
f 7/16/6 12/17/6 8/18/6
f 8/19/7 12/20/7 9/21/7
f 9/22/8 12/23/8 10/24/8
f 10/25/9 12/26/9 11/27/9
f 11/28/10 12/29/10 7/30/10
