# Blender v2.92.0 OBJ File: 'bossCore.blend'
# www.blender.org
mtllib bossCore.mtl
o 円錐.001_円錐.002
v 0.000000 0.002500 -1.500000
v -1.500000 0.002500 0.000000
v 0.000000 0.002500 1.500000
v 1.500000 0.002500 -0.000000
v -0.000000 -1.572500 0.000000
v -0.000000 0.002500 -1.500000
v 1.500000 0.002500 0.000000
v -0.000000 0.002500 1.500000
v -1.500000 0.002500 -0.000000
v -0.000000 1.577500 0.000000
vt 0.000000 0.500000
vt 0.250000 0.750000
vt 0.000000 1.000000
vt 0.500000 1.000000
vt 0.500000 0.500000
vt 0.500000 0.500000
vt 0.250000 0.250000
vt 0.500000 0.000000
vt 0.000000 0.000000
vt 0.000000 0.500000
vn -0.5865 -0.5586 -0.5865
vn -0.5865 -0.5586 0.5865
vn 0.5865 -0.5586 0.5865
vn 0.5865 -0.5586 -0.5865
vn 0.5865 0.5586 -0.5865
vn 0.5865 0.5586 0.5865
vn -0.5865 0.5586 0.5865
vn -0.5865 0.5586 -0.5865
usemtl マテリアル.002
s off
f 1/1/1 5/2/1 2/3/1
f 2/3/2 5/2/2 3/4/2
f 3/4/3 5/2/3 4/5/3
f 4/5/4 5/2/4 1/1/4
f 6/6/5 10/7/5 7/8/5
f 7/8/6 10/7/6 8/9/6
f 8/9/7 10/7/7 9/10/7
f 9/10/8 10/7/8 6/6/8
