# Blender v2.92.0 OBJ File: 'stageWall.blend'
# www.blender.org
mtllib stageWall.mtl
o 立方体
v -16.000000 0.000000 56.000000
v -16.000000 10.000000 56.000000
v -16.000000 0.000000 -56.000000
v -16.000000 10.000000 -56.000000
v -10.000000 0.000000 56.000000
v -10.000000 10.000000 56.000000
v -10.000000 0.000000 -56.000000
v -10.000000 10.000000 -56.000000
v -10.000000 0.000000 -50.000004
v -10.000000 10.000000 -50.000004
v -10.000000 0.000000 -56.000000
v -10.000000 10.000000 -56.000000
v 10.000000 0.000000 -50.000004
v 10.000000 10.000000 -50.000004
v 10.000000 0.000000 -56.000000
v 10.000000 10.000000 -56.000000
v -10.000000 0.000000 56.000000
v -10.000000 10.000000 56.000000
v -10.000000 0.000000 50.000004
v -10.000000 10.000000 50.000004
v 10.000000 0.000000 56.000000
v 10.000000 10.000000 56.000000
v 10.000000 0.000000 50.000004
v 10.000000 10.000000 50.000004
vt 0.958904 0.000000
vt 0.958904 0.191781
vt 0.767123 0.191781
vt 0.767123 0.000000
vt 0.191781 0.649543
vt 0.191781 0.841324
vt 0.000000 0.841324
vt 0.000000 0.649543
vt 0.767123 0.639269
vt 0.767123 0.831050
vt 0.575342 0.831050
vt 0.575342 0.639269
vt 0.383561 0.831050
vt 0.383561 0.639269
vt 0.767123 0.383562
vt 0.958904 0.383562
vt 0.958904 0.575342
vt 0.767123 0.575342
vt 0.767123 0.191781
vt 0.958904 0.191781
vt 0.958904 0.383562
vt 0.767123 0.383562
vt 0.191781 0.649543
vt 0.000000 0.649543
vt 0.000000 0.639269
vt 0.191781 0.639269
vt 0.000000 0.000000
vt 0.191781 0.000000
vt 0.787671 0.575342
vt 0.787671 0.767123
vt 0.777397 0.767123
vt 0.777397 0.575342
vt 0.767123 0.639269
vt 0.575342 0.639269
vt 0.575342 0.000000
vt 0.767123 0.000000
vt 0.969178 0.000000
vt 0.969178 0.639269
vt 0.958904 0.639269
vt 0.958904 0.000000
vt 1.000000 0.000000
vt 1.000000 0.639269
vt 0.989726 0.639269
vt 0.989726 0.000000
vt 0.383562 0.010274
vt 0.191781 0.010274
vt 0.191781 0.000000
vt 0.383562 0.000000
vt 0.575342 0.639269
vt 0.383562 0.639269
vt 0.383562 0.000000
vt 0.575342 0.000000
vt 0.777397 0.575342
vt 0.777397 0.767123
vt 0.767123 0.767123
vt 0.767123 0.575342
vt 0.383562 0.649543
vt 0.191781 0.649543
vt 0.989726 0.000000
vt 0.989726 0.639269
vt 0.979452 0.639269
vt 0.979452 0.000000
vt 0.979452 0.000000
vt 0.979452 0.639269
vt 0.969178 0.639269
vt 0.969178 0.000000
vn -1.0000 0.0000 0.0000
vn 0.0000 0.0000 -1.0000
vn 1.0000 0.0000 0.0000
vn 0.0000 0.0000 1.0000
vn 0.0000 -1.0000 0.0000
vn 0.0000 1.0000 0.0000
usemtl マテリアル.003
s off
f 1/1/1 2/2/1 4/3/1 3/4/1
f 3/5/2 4/6/2 8/7/2 7/8/2
f 7/9/3 8/10/3 6/11/3 5/12/3
f 5/12/4 6/11/4 2/13/4 1/14/4
f 3/15/5 7/16/5 5/17/5 1/18/5
f 8/19/6 4/20/6 2/21/6 6/22/6
f 9/23/1 10/24/1 12/25/1 11/26/1
f 11/26/2 12/25/2 16/27/2 15/28/2
f 15/29/3 16/30/3 14/31/3 13/32/3
f 13/33/4 14/34/4 10/35/4 9/36/4
f 11/37/5 15/38/5 13/39/5 9/40/5
f 16/41/6 12/42/6 10/43/6 14/44/6
f 17/45/1 18/46/1 20/47/1 19/48/1
f 19/49/2 20/50/2 24/51/2 23/52/2
f 23/53/3 24/54/3 22/55/3 21/56/3
f 21/57/4 22/58/4 18/46/4 17/45/4
f 19/59/5 23/60/5 21/61/5 17/62/5
f 24/63/6 20/64/6 18/65/6 22/66/6
